<?xml version="1.0" standalone="no"?>
<!DOCTYPE svg PUBLIC "-//W3C//DTD SVG 20010904//EN"
 "http://www.w3.org/TR/2001/REC-SVG-20010904/DTD/svg10.dtd">
<svg version="1.0" xmlns="http://www.w3.org/2000/svg"
 width="238.000000pt" height="238.000000pt" viewBox="0 0 238.000000 238.000000"
 preserveAspectRatio="xMidYMid meet">
<metadata>
Created by potrace 1.11, written by Peter Selinger 2001-2013
</metadata>
<g transform="translate(0.000000,238.000000) scale(0.100000,-0.100000)"
fill="#000000" stroke="none">
<path d="M988 2354 c-53 -28 -63 -63 -66 -246 -2 -93 -5 -168 -7 -168 -1 0
-27 11 -56 25 -281 128 -623 -42 -705 -350 -8 -27 -14 -90 -14 -138 0 -226
139 -426 346 -497 126 -44 278 -34 395 26 l51 26 27 -26 c61 -58 149 -53 198
11 l28 36 3 586 c2 427 0 598 -9 629 -17 60 -67 102 -122 102 -23 -1 -54 -7
-69 -16z m-218 -642 c129 -67 175 -231 103 -364 -49 -90 -130 -133 -238 -126
-154 10 -260 157 -227 316 35 165 215 252 362 174z"/>
<path d="M1283 1806 c-18 -8 -42 -30 -53 -48 -19 -32 -20 -49 -20 -646 0 -692
-4 -658 76 -693 52 -24 106 -14 143 25 l23 24 62 -29 c36 -17 97 -34 143 -41
154 -22 312 32 428 148 110 110 162 247 152 403 -15 257 -195 455 -450 493
-83 13 -166 1 -256 -35 l-61 -25 0 162 c0 134 -3 167 -18 195 -33 66 -106 95
-169 67z m567 -659 c170 -101 170 -353 0 -454 -47 -28 -63 -33 -121 -33 -105
0 -174 39 -227 129 -24 40 -27 56 -27 131 0 68 5 93 22 125 47 88 128 134 233
135 57 0 74 -5 120 -33z"/>
</g>
</svg>
